<svg xmlns="http://www.w3.org/2000/svg" viewBox="0 0 32 32">
    <g>
        <path d="M28,2H4A3,3,0,0,0,1,5V27a3,3,0,0,0,3,3H28a3,3,0,0,0,3-3V5A3,3,0,0,0,28,2ZM3,5A1,1,0,0,1,4,4H28a1,1,0,0,1,1,1V8H3ZM29,27a1,1,0,0,1-1,1H4a1,1,0,0,1-1-1V10H29Zm-9-6a2.981,2.981,0,0,1,.78-2A2.981,2.981,0,0,1,20,17V15a1,1,0,0,0-1-1,1,1,0,0,1,0-2,3,3,0,0,1,3,3v2a1,1,0,0,0,1,1,1,1,0,0,1,0,2,1,1,0,0,0-1,1v2a3,3,0,0,1-3,3,1,1,0,0,1,0-2,1,1,0,0,0,1-1ZM8,19a1,1,0,0,1,1-1,1,1,0,0,0,1-1V15a3,3,0,0,1,3-3,1,1,0,0,1,0,2,1,1,0,0,0-1,1v2a2.981,2.981,0,0,1-.78,2A2.981,2.981,0,0,1,12,21v2a1,1,0,0,0,1,1,1,1,0,0,1,0,2,3,3,0,0,1-3-3V21a1,1,0,0,0-1-1A1,1,0,0,1,8,19Z"/>
    </g>
</svg>